<?xml version="1.0" standalone="no"?><!DOCTYPE svg PUBLIC "-//W3C//DTD SVG 1.1//EN" "http://www.w3.org/Graphics/SVG/1.1/DTD/svg11.dtd"><svg t="1773758221895" class="icon" viewBox="0 0 1024 1024" version="1.1" xmlns="http://www.w3.org/2000/svg" p-id="16957" xmlns:xlink="http://www.w3.org/1999/xlink" width="200" height="200"><path d="M528.732326 478.113741C528.732326 478.113741 934.735282 341.128788 888.603736 204.128972 850.812643 91.898304 631.985101 178.24591 631.985101 178.24591 631.985101 178.24591 525.377132-33.368359 407.474919 38.463035 289.572712 110.294433 528.732326 478.113741 528.732326 478.113741ZM545.715934 428.789761C545.715934 428.789761 877.118918 308.016642 850.219613 216.775652 827.015197 138.067515 615.02863 227.491076 615.02863 227.491076 615.02863 227.491076 526.328363 26.948327 437.33547 66.386597 348.342575 105.824866 545.715934 428.789761 545.715934 428.789761ZM502.499403 554.51124C502.499403 554.51124 737.769635 913.636948 616.871099 993.706855 517.830659 1059.300375 398.749475 855.822909 398.749475 855.822909 398.749475 855.822909 184.158168 957.681559 135.619093 827.998501 87.080022 698.315441 502.499403 554.51124 502.499403 554.51124ZM486.019963 598.069644C486.019963 598.069644 669.580503 901.738365 591.915535 958.922316 524.918622 1008.251484 415.060813 804.14998 415.060813 804.14998 415.060813 804.14998 221.279542 911.464731 176.339653 824.245002 131.399763 737.025273 486.019963 598.069644 486.019963 598.069644ZM552.468639 530.201287C552.468639 530.201287 689.453592 936.20424 826.453407 890.072697 938.684075 852.281604 852.336467 633.454061 852.336467 633.454061 852.336467 633.454061 1063.95074 526.84609 992.119345 408.943879 920.287946 291.041672 552.468639 530.201287 552.468639 530.201287ZM597.321242 542.666587C597.321242 542.666587 718.094362 874.069567 809.335353 847.170266 888.043489 823.96585 798.619929 611.979284 798.619929 611.979284 798.619929 611.979284 999.162679 523.279013 959.724407 434.286121 920.286139 345.293227 597.321242 542.666587 597.321242 542.666587ZM478.049236 504.285328C478.049236 504.285328 341.064282 98.282374 204.064466 144.41392 91.833799 182.205011 178.181405 401.032556 178.181405 401.032556 178.181405 401.032556-33.432865 507.640525 38.39853 625.542736 110.229928 743.444943 478.049236 504.285328 478.049236 504.285328ZM433.196629 491.82003C433.196629 491.82003 312.423511 160.417047 221.182521 187.316351 142.474383 210.520767 231.897944 422.507334 231.897944 422.507334 231.897944 422.507334 31.355196 511.207602 70.793466 600.200495 110.231735 689.193388 433.196629 491.82003 433.196629 491.82003Z" fill="#900C21" p-id="16958"></path></svg>