<svg width="200" height="200" viewBox="0 0 200 200" fill="none" xmlns="http://www.w3.org/2000/svg">
<path d="M103.268 93.3815C103.268 93.3815 182.566 66.6266 173.555 39.8688C166.174 17.9488 123.435 34.8136 123.435 34.8136C123.435 34.8136 102.613 -6.51735 79.585 7.51222C56.5572 21.5418 103.268 93.3815 103.268 93.3815ZM106.585 83.7479C106.585 83.7479 171.312 60.1594 166.059 42.3389C161.526 26.9662 120.123 44.4318 120.123 44.4318C120.123 44.4318 102.799 5.26326 85.4171 12.966C68.0357 20.6688 106.585 83.7479 106.585 83.7479ZM98.1445 108.303C98.1445 108.303 144.096 178.445 120.483 194.083C101.139 206.895 77.8808 167.153 77.8808 167.153C77.8808 167.153 35.9685 187.047 26.4882 161.718C17.0079 136.39 98.1445 108.303 98.1445 108.303ZM94.9258 116.81C94.9258 116.81 130.778 176.121 115.609 187.289C102.523 196.924 81.0666 157.06 81.0666 157.06C81.0666 157.06 43.2187 178.02 34.4414 160.985C25.6641 143.95 94.9258 116.81 94.9258 116.81ZM107.904 103.555C107.904 103.555 134.659 182.852 161.417 173.842C183.337 166.461 166.472 123.721 166.472 123.721C166.472 123.721 207.803 102.9 193.773 79.8718C179.744 56.844 107.904 103.555 107.904 103.555ZM116.664 105.989C116.664 105.989 140.253 170.717 158.073 165.463C173.446 160.931 155.981 119.527 155.981 119.527C155.981 119.527 195.149 102.203 187.446 84.8214C179.743 67.44 116.664 105.989 116.664 105.989ZM93.3691 98.4931C93.3691 98.4931 66.6142 19.1957 39.8564 28.2058C17.9363 35.5868 34.8011 78.3266 34.8011 78.3266C34.8011 78.3266 -6.5298 99.1484 7.49977 122.176C21.5293 145.204 93.3691 98.4931 93.3691 98.4931ZM84.6088 96.0585C84.6088 96.0585 61.0203 31.3314 43.1998 36.5851C27.8271 41.1172 45.2926 82.5209 45.2926 82.5209C45.2926 82.5209 6.12412 99.8451 13.8269 117.227C21.5297 134.608 84.6088 96.0585 84.6088 96.0585Z" fill="#2C2C2C"/>
</svg>
