<svg width="200" height="200" viewBox="0 0 200 200" fill="none" xmlns="http://www.w3.org/2000/svg">
<path d="M80 64H40V24H80V64ZM48 56H72V32H48V56ZM80 120H40V80H80V120ZM48 112H72V88H48V112ZM80 176H40V136H80V176ZM48 168H72V144H48V168Z" fill="#D46484"/>
<path d="M96 40H184V48H96V40ZM96 96H184V104H96V96ZM96 152H184V160H96V152Z" fill="#E6E6E6"/>
<path d="M60 57.6802L41.2 38.8002L46.8 33.2002L60 46.3202L89.2 17.2002L94.8 22.8002L60 57.6802ZM60 113.68L41.2 94.8002L46.8 89.2002L60 102.32L89.2 73.2002L94.8 78.8002L60 113.68ZM60 169.68L41.2 150.8L46.8 145.2L60 158.32L89.2 129.2L94.8 134.8L60 169.68Z" fill="#D46484"/>
</svg>
