<?xml version="1.0" standalone="no"?><!DOCTYPE svg PUBLIC "-//W3C//DTD SVG 1.1//EN" "http://www.w3.org/Graphics/SVG/1.1/DTD/svg11.dtd"><svg t="1773758150440" class="icon" viewBox="0 0 1024 1024" version="1.1" xmlns="http://www.w3.org/2000/svg" p-id="9624" xmlns:xlink="http://www.w3.org/1999/xlink" width="200" height="200"><path d="M409.6 327.68H204.8V122.88h204.8zM245.76 286.72h122.88V163.84H245.76zM409.6 614.4H204.8v-204.8h204.8z m-163.84-40.96h122.88v-122.88H245.76zM409.6 901.12H204.8v-204.8h204.8z m-163.84-40.96h122.88v-122.88H245.76z" fill="#D46484" p-id="9625"></path><path d="M491.52 204.8h450.56v40.96H491.52zM491.52 491.52h450.56v40.96H491.52zM491.52 778.24h450.56v40.96H491.52z" fill="#392164" p-id="9626"></path><path d="M307.2 295.3216L210.944 198.656l28.672-28.672L307.2 237.1584l149.504-149.0944 28.672 28.672L307.2 295.3216zM307.2 582.0416l-96.256-96.6656 28.672-28.672 67.584 67.1744 149.504-149.0944 28.672 28.672-178.176 178.5856zM307.2 868.7616l-96.256-96.6656 28.672-28.672 67.584 67.1744 149.504-149.0944 28.672 28.672-178.176 178.5856z" fill="#D46484" p-id="9627"></path></svg>